<svg width="245" height="238" viewBox="0 0 245 238" fill="none" xmlns="http://www.w3.org/2000/svg">
<path d="M122.063 203.25C108.553 203.276 95.2292 200.2 83.1769 194.273C81.3155 193.426 79.8222 191.967 78.9607 190.154C78.0992 188.341 77.925 186.29 78.4688 184.365L95.9063 125.083C89.9796 118.657 86.8536 110.247 87.1875 101.625C87.1875 92.6408 90.8618 84.0246 97.4022 77.6718C103.942 71.319 112.813 67.75 122.063 67.75C131.312 67.75 140.183 71.319 146.723 77.6718C153.263 84.0246 156.938 92.6408 156.938 101.625C156.992 110.183 153.651 118.432 147.608 124.66L165.046 184.365C165.609 186.261 165.474 188.288 164.662 190.098C163.85 191.907 162.413 193.384 160.599 194.273C148.652 200.149 135.454 203.223 122.063 203.25V203.25ZM97.5628 181.993C113.358 187.749 130.767 187.749 146.562 181.993L129.125 124.321C128.628 122.668 128.663 120.906 129.223 119.272C129.784 117.638 130.845 116.209 132.263 115.175C134.477 113.624 136.285 111.59 137.542 109.237C138.799 106.883 139.47 104.276 139.5 101.625C139.5 97.1329 137.663 92.8248 134.393 89.6484C131.123 86.472 126.687 84.6875 122.063 84.6875C117.438 84.6875 113.003 86.472 109.732 89.6484C106.462 92.8248 104.625 97.1329 104.625 101.625C104.625 104.254 105.255 106.848 106.466 109.2C107.677 111.552 109.434 113.597 111.6 115.175C113.019 116.209 114.079 117.638 114.64 119.272C115.201 120.906 115.235 122.668 114.739 124.321L97.5628 181.993Z" fill="#0000A0"/>
<path d="M122.062 237.125C189.476 237.125 244.125 184.043 244.125 118.562C244.125 53.0822 189.476 0 122.062 0C54.6492 0 0 53.0822 0 118.562C0 184.043 54.6492 237.125 122.062 237.125Z" fill="#D8E1EF"/>
<path d="M165.656 184.365L148.219 125.083C154.145 118.657 157.271 110.247 156.937 101.625C156.937 92.6408 153.263 84.0246 146.723 77.6718C140.182 71.319 131.312 67.75 122.062 67.75C112.813 67.75 103.942 71.319 97.4021 77.6718C90.8618 84.0246 87.1874 92.6408 87.1874 101.625C87.1325 110.183 90.4735 118.432 96.5165 124.66L79.079 184.365C78.5155 186.261 78.6514 188.288 79.4633 190.098C80.2751 191.907 81.7119 193.384 83.5256 194.273C95.5867 200.177 108.905 203.253 122.411 203.253C135.917 203.253 149.236 200.177 161.297 194.273C163.095 193.37 164.513 191.887 165.308 190.079C166.104 188.271 166.227 186.251 165.656 184.365V184.365Z" fill="#0000A0"/>
<path d="M178.647 179.792C176.461 179.899 174.314 179.203 172.631 177.844C171.007 176.257 170.096 174.111 170.096 171.873C170.096 169.636 171.007 167.49 172.631 165.903C182.104 156.322 188.468 144.249 190.932 131.183C193.396 118.117 191.852 104.636 186.492 92.4162C181.131 80.1962 172.19 69.7764 160.782 62.4526C149.373 55.1288 135.999 51.2241 122.324 51.2241C108.649 51.2241 95.2752 55.1288 83.8665 62.4526C72.4577 69.7764 63.5171 80.1962 58.1564 92.4162C52.7957 104.636 51.2516 118.117 53.7159 131.183C56.1802 144.249 62.5444 156.322 72.0168 165.903C73.4173 167.551 74.1242 169.653 73.9958 171.787C73.8674 173.921 72.9132 175.928 71.3245 177.407C69.7358 178.886 67.6302 179.727 65.4301 179.76C63.2299 179.794 61.0979 179.019 59.4618 177.59C49.5242 167.633 42.2561 155.457 38.296 142.134C34.3359 128.81 33.805 114.745 36.7499 101.176C39.6947 87.6059 46.0253 74.9463 55.1855 64.309C64.3457 53.6716 76.055 45.382 89.285 40.1685C102.515 34.955 116.861 32.977 131.062 34.4084C145.263 35.8398 158.884 40.6367 170.73 48.3777C182.576 56.1187 192.284 66.567 199 78.8046C205.717 91.0422 209.236 104.695 209.25 118.562C209.302 140.428 200.576 161.451 184.925 177.166C184.114 177.992 183.141 178.65 182.062 179.101C180.983 179.552 179.822 179.787 178.647 179.792V179.792Z" fill="#0000A0"/>
</svg>
