<svg width="35" height="36" viewBox="0 0 35 36" fill="none" xmlns="http://www.w3.org/2000/svg">
<path d="M17.5 17.25C19.9162 17.25 21.875 15.2353 21.875 12.75C21.875 10.2647 19.9162 8.25 17.5 8.25C15.0838 8.25 13.125 10.2647 13.125 12.75C13.125 15.2353 15.0838 17.25 17.5 17.25Z" fill="#0000A0"/>
<path d="M17.5 0C7.8349 0 0 8.05875 0 18C0 27.9413 7.8349 36 17.5 36C27.1651 36 35 27.9413 35 18C35 8.05875 27.1651 0 17.5 0ZM26.1129 30.0847V27.609C26.1129 22.7168 22.2564 18.75 17.5 18.75C12.7429 18.75 8.88708 22.7168 8.88708 27.609V30.0847C5.2726 27.3547 2.91667 22.9657 2.91667 18C2.91667 9.7155 9.44563 3 17.5 3C25.5544 3 32.0833 9.7155 32.0833 18C32.0833 22.9657 29.7274 27.3547 26.1129 30.0847Z" fill="#0000A0"/>
</svg>
