<svg viewBox="0 0 8.467 8.467" xmlns="http://www.w3.org/2000/svg"><path d="M15.348 1.24 1.352 13.242a1 1 0 0 0-.356.762V19c-.004.859 1.005 1.324 1.654.762L4 18.604V30a1 1 0 0 0 1 1h7a1 1 0 0 0 1-1V19h6v11a1 1 0 0 0 1 1h7a1 1 0 0 0 1-1V18.605l1.35 1.157A1 1 0 0 0 30.996 19v-4.996a1 1 0 0 0-.346-.762L16.654 1.24a1.006 1.006 0 0 0-1.306 0zm.648 2.074 13.008 11.147v2.37L16.654 6.235a1 1 0 0 0-1.306 0L2.996 16.83v-2.37zm0 5.004L26 16.891V29h-5V18a1 1 0 0 0-1-1h-8a1 1 0 0 0-1 1v11H6V16.889Z" style="line-height:normal;font-variant-ligatures:normal;font-variant-position:normal;font-variant-caps:normal;font-variant-numeric:normal;font-variant-alternates:normal;font-feature-settings:normal;text-indent:0;text-align:start;text-decoration-line:none;text-decoration-style:solid;text-decoration-color:#000;text-transform:none;text-orientation:mixed;white-space:normal;shape-padding:0;isolation:auto;mix-blend-mode:normal;solid-color:#000;solid-opacity:1" transform="scale(.26458)" color="#000000" font-style="normal" font-variant="normal" font-weight="400" font-stretch="normal" font-size="medium" font-family="sans-serif" text-decoration="none" letter-spacing="normal" word-spacing="normal" writing-mode="lr-tb" direction="ltr" dominant-baseline="auto" baseline-shift="baseline" text-anchor="start" clip-rule="nonzero" display="inline" overflow="visible" visibility="visible" opacity="1" color-interpolation="sRGB" color-interpolation-filters="linearRGB" vector-effect="none" fill="#0000a0" fill-opacity="1" fill-rule="nonzero" stroke="none" stroke-width="1.99999988" stroke-linecap="round" stroke-linejoin="round" stroke-miterlimit="4" stroke-dasharray="none" stroke-dashoffset="0" stroke-opacity="1" paint-order="stroke fill markers" color-rendering="auto" image-rendering="auto" shape-rendering="auto" text-rendering="auto" enable-background="accumulate" class="fill-000000"></path></svg>