<svg width="252" height="157" viewBox="0 0 252 157" fill="none" xmlns="http://www.w3.org/2000/svg">
<path d="M225 69.7778H171C168.613 69.7778 166.324 68.8588 164.636 67.2231C162.948 65.5874 162 63.3688 162 61.0556V34.8889C162 25.6358 165.793 16.7617 172.544 10.2187C179.295 3.67578 188.452 0 198 0C207.548 0 216.704 3.67578 223.456 10.2187C230.207 16.7617 234 25.6358 234 34.8889V61.0556C234 63.3688 233.052 65.5874 231.364 67.2231C229.676 68.8588 227.387 69.7778 225 69.7778ZM180 52.3333H216V34.8889C216 30.2623 214.103 25.8253 210.728 22.5538C207.352 19.2823 202.774 17.4444 198 17.4444C193.226 17.4444 188.648 19.2823 185.272 22.5538C181.896 25.8253 180 30.2623 180 34.8889V52.3333Z" fill="#0E6AE0"/>
<path d="M171 139.556C168.613 139.556 166.324 138.637 164.636 137.001C162.948 135.365 162 133.147 162 130.833V87.2222C162 84.9089 161.052 82.6904 159.364 81.0547C157.676 79.4189 155.387 78.5 153 78.5H27C19.8392 78.5 12.9716 81.2568 7.90812 86.164C2.84464 91.0712 0 97.7268 0 104.667V130.833C0 137.773 2.84464 144.429 7.90812 149.336C12.9716 154.243 19.8392 157 27 157H171C173.387 157 175.676 156.081 177.364 154.445C179.052 152.81 180 150.591 180 148.278C180 145.965 179.052 143.746 177.364 142.11C175.676 140.474 173.387 139.556 171 139.556Z" fill="#D8E1EF"/>
<path d="M52.6501 105.975C52.246 105.558 51.7581 105.225 51.2163 104.998C50.6745 104.771 50.0904 104.653 49.5001 104.653C48.9097 104.653 48.3256 104.771 47.7838 104.998C47.242 105.225 46.7541 105.558 46.3501 105.975L40.5001 111.557L34.6501 105.975C33.8146 105.165 32.6815 104.711 31.5001 104.711C30.3186 104.711 29.1855 105.165 28.3501 105.975C27.5146 106.785 27.0453 107.883 27.0453 109.028C27.0453 110.173 27.5146 111.271 28.3501 112.081L34.1101 117.75L28.3501 123.419C27.5146 124.229 27.0453 125.327 27.0453 126.472C27.0453 127.617 27.5146 128.715 28.3501 129.525C29.1855 130.335 30.3186 130.79 31.5001 130.79C32.6815 130.79 33.8146 130.335 34.6501 129.525L40.5001 123.943L46.3501 129.525C46.7637 129.926 47.2548 130.244 47.7953 130.461C48.3358 130.678 48.9151 130.79 49.5001 130.79C50.0851 130.79 50.6644 130.678 51.2048 130.461C51.7453 130.244 52.2364 129.926 52.6501 129.525C53.0637 129.124 53.3919 128.648 53.6157 128.124C53.8396 127.601 53.9548 127.039 53.9548 126.472C53.9548 125.905 53.8396 125.344 53.6157 124.82C53.3919 124.296 53.0637 123.82 52.6501 123.419L46.8901 117.75L52.6501 112.081C53.0805 111.689 53.4236 111.216 53.6582 110.691C53.8927 110.166 54.0137 109.6 54.0137 109.028C54.0137 108.456 53.8927 107.89 53.6582 107.365C53.4236 106.839 53.0805 106.367 52.6501 105.975V105.975Z" fill="#0593FF"/>
<path d="M88.6499 105.975C88.2459 105.558 87.758 105.225 87.2162 104.998C86.6744 104.771 86.0903 104.653 85.4999 104.653C84.9096 104.653 84.3255 104.771 83.7837 104.998C83.2419 105.225 82.7539 105.558 82.3499 105.975L76.4999 111.557L70.6499 105.975C70.2363 105.574 69.7452 105.256 69.2047 105.039C68.6642 104.822 68.085 104.711 67.4999 104.711C66.9149 104.711 66.3357 104.822 65.7952 105.039C65.2547 105.256 64.7636 105.574 64.3499 105.975C63.9363 106.376 63.6081 106.852 63.3843 107.376C63.1604 107.899 63.0452 108.461 63.0452 109.028C63.0452 109.595 63.1604 110.156 63.3843 110.68C63.6081 111.204 63.9363 111.68 64.3499 112.081L70.1099 117.75L64.3499 123.419C63.5145 124.229 63.0452 125.327 63.0452 126.472C63.0452 127.617 63.5145 128.715 64.3499 129.525C65.1854 130.335 66.3185 130.79 67.4999 130.79C68.6814 130.79 69.8145 130.335 70.6499 129.525L76.4999 123.943L82.3499 129.525C82.7636 129.926 83.2547 130.244 83.7952 130.461C84.3357 130.678 84.9149 130.79 85.4999 130.79C86.085 130.79 86.6642 130.678 87.2047 130.461C87.7452 130.244 88.2363 129.926 88.6499 129.525C89.0636 129.124 89.3917 128.648 89.6156 128.124C89.8395 127.601 89.9547 127.039 89.9547 126.472C89.9547 125.905 89.8395 125.344 89.6156 124.82C89.3917 124.296 89.0636 123.82 88.6499 123.419L82.8899 117.75L88.6499 112.081C89.0804 111.689 89.4235 111.216 89.6581 110.691C89.8926 110.166 90.0136 109.6 90.0136 109.028C90.0136 108.456 89.8926 107.89 89.6581 107.365C89.4235 106.839 89.0804 106.367 88.6499 105.975V105.975Z" fill="#0593FF"/>
<path d="M118.89 117.75L124.65 112.081C125.485 111.271 125.955 110.173 125.955 109.028C125.955 107.883 125.485 106.785 124.65 105.975C123.815 105.165 122.682 104.711 121.5 104.711C120.319 104.711 119.185 105.165 118.35 105.975L112.5 111.557L106.65 105.975C105.815 105.165 104.682 104.711 103.5 104.711C102.319 104.711 101.185 105.165 100.35 105.975C99.5146 106.785 99.0453 107.883 99.0453 109.028C99.0453 110.173 99.5146 111.271 100.35 112.081L106.11 117.75L100.35 123.42C99.5146 124.229 99.0453 125.327 99.0453 126.472C99.0453 127.617 99.5146 128.715 100.35 129.525C101.185 130.335 102.319 130.79 103.5 130.79C104.682 130.79 105.815 130.335 106.65 129.525L112.5 123.943L118.35 129.525C118.764 129.926 119.255 130.244 119.795 130.461C120.336 130.678 120.915 130.79 121.5 130.79C122.085 130.79 122.664 130.678 123.205 130.461C123.745 130.244 124.236 129.926 124.65 129.525C125.064 129.124 125.392 128.648 125.616 128.124C125.84 127.601 125.955 127.039 125.955 126.472C125.955 125.905 125.84 125.344 125.616 124.82C125.392 124.296 125.064 123.82 124.65 123.42L118.89 117.75Z" fill="#0593FF"/>
<path d="M225 52.3334H171C156.088 52.3334 144 64.0486 144 78.5V130.833C144 145.285 156.088 157 171 157H225C239.912 157 252 145.285 252 130.833V78.5C252 64.0486 239.912 52.3334 225 52.3334Z" fill="#0593FF"/>
<path d="M216 95.9446C216.019 92.8781 215.204 89.8609 213.636 87.1972C212.068 84.5334 209.804 82.3172 207.071 80.7719C204.338 79.2267 201.233 78.4069 198.068 78.3954C194.904 78.3838 191.793 79.1808 189.048 80.7061C186.303 82.2314 184.021 84.431 182.432 87.0832C180.844 89.7355 180.005 92.7466 180.001 95.8132C179.996 98.8798 180.825 101.893 182.405 104.55C183.985 107.207 186.26 109.414 189 110.947V122.111C189 124.425 189.948 126.643 191.636 128.279C193.324 129.915 195.613 130.834 198 130.834C200.387 130.834 202.676 129.915 204.364 128.279C206.052 126.643 207 124.425 207 122.111V110.947C209.721 109.425 211.983 107.239 213.562 104.607C215.141 101.975 215.981 98.9889 216 95.9446Z" fill="#0E6AE0"/>
</svg>
