<svg width="30" height="36" viewBox="0 0 30 36" fill="none" xmlns="http://www.w3.org/2000/svg">
<path d="M27 15.002H9V10.8024C9 7.65269 11.25 4.80297 14.4 4.50299C18 4.20302 21 7.05275 21 10.5024C21 11.4023 21.6 12.0023 22.5 12.0023H24C24.9 12.0023 25.5 11.4023 25.5 10.5024C25.5 4.80297 21 0.153408 15.3 0.00342247C9.45 -0.146564 4.5 4.65298 4.5 10.5024V15.002H3C1.35 15.002 0 16.3519 0 18.0017V28.5007C0 32.7003 3.3 36 7.5 36H22.5C26.7 36 30 32.7003 30 28.5007V18.0017C30 16.3519 28.65 15.002 27 15.002ZM16.5 26.5509V28.5007C16.5 29.2507 15.75 30.0006 15 30.0006C14.25 30.0006 13.5 29.2507 13.5 28.5007V26.5509C12.6 26.1009 12 25.0511 12 24.0011C12 22.3513 13.35 21.0015 15 21.0015C16.65 21.0015 18 22.3513 18 24.0011C18 25.0511 17.4 26.1009 16.5 26.5509Z" fill="#0000A0"/>
</svg>
